<svg xmlns="http://www.w3.org/2000/svg" width="48.001" height="28.99" viewBox="0 0 48.001 28.99"><g transform="translate(0.001 -11)"><path d="M13.527,21.529a4.913,4.913,0,0,0,.176,1.435,8.622,8.622,0,0,0,.511,1.161.705.705,0,0,1,.112.371.642.642,0,0,1-.3.484l-1.006.677a.758.758,0,0,1-.415.145.733.733,0,0,1-.479-.226,4.984,4.984,0,0,1-.575-.758c-.16-.274-.319-.58-.495-.951a5.876,5.876,0,0,1-4.694,2.225,4.349,4.349,0,0,1-3.193-1.161,4.166,4.166,0,0,1-1.181-3.1,4.168,4.168,0,0,1,1.453-3.321,5.773,5.773,0,0,1,3.911-1.258,12.442,12.442,0,0,1,1.692.129c.59.081,1.2.21,1.836.355V16.563a3.6,3.6,0,0,0-.75-2.58,3.649,3.649,0,0,0-2.6-.742,7.151,7.151,0,0,0-1.724.21A12.571,12.571,0,0,0,4.077,14a4.637,4.637,0,0,1-.559.21.983.983,0,0,1-.255.048c-.224,0-.335-.161-.335-.5v-.79A1.026,1.026,0,0,1,3.04,12.4a1.2,1.2,0,0,1,.447-.339A9.165,9.165,0,0,1,5.5,11.338a9.567,9.567,0,0,1,2.49-.306,5.8,5.8,0,0,1,4.183,1.306A5.369,5.369,0,0,1,13.5,16.3v5.224h.03Zm-6.482,2.45a5.134,5.134,0,0,0,1.644-.29,3.548,3.548,0,0,0,1.517-1.032,2.574,2.574,0,0,0,.543-1.032,5.835,5.835,0,0,0,.16-1.4v-.677a13.071,13.071,0,0,0-1.469-.274,12.013,12.013,0,0,0-1.5-.1,3.656,3.656,0,0,0-2.379.645,2.256,2.256,0,0,0-.782,1.854,2.264,2.264,0,0,0,.591,1.709A2.2,2.2,0,0,0,7.045,23.979Zm12.82,1.742a.886.886,0,0,1-.607-.161,1.316,1.316,0,0,1-.335-.629L15.171,12.468a2.837,2.837,0,0,1-.144-.645.352.352,0,0,1,.383-.4h1.565a.88.88,0,0,1,.623.161,1.322,1.322,0,0,1,.319.629L20.6,22.884l2.49-10.674a1.144,1.144,0,0,1,.3-.629,1.089,1.089,0,0,1,.639-.161h1.277a.955.955,0,0,1,.639.161,1.089,1.089,0,0,1,.3.629l2.522,10.8,2.762-10.8a1.4,1.4,0,0,1,.319-.629,1.033,1.033,0,0,1,.623-.161h1.485a.357.357,0,0,1,.4.4,1.618,1.618,0,0,1-.032.258,2.293,2.293,0,0,1-.112.4L30.369,24.947a1.251,1.251,0,0,1-.335.629,1.01,1.01,0,0,1-.607.161H28.054a.955.955,0,0,1-.639-.161,1.145,1.145,0,0,1-.3-.645l-2.474-10.4L22.18,24.915a1.274,1.274,0,0,1-.3.645.982.982,0,0,1-.639.161Zm20.514.435a10.486,10.486,0,0,1-2.458-.29,7.194,7.194,0,0,1-1.836-.645,1.158,1.158,0,0,1-.495-.451,1.143,1.143,0,0,1-.1-.451V23.5c0-.339.128-.5.367-.5a.9.9,0,0,1,.287.048c.1.032.239.1.4.161a8.609,8.609,0,0,0,1.756.564,9.5,9.5,0,0,0,1.9.193,4.271,4.271,0,0,0,2.331-.532,1.741,1.741,0,0,0,.83-1.532,1.583,1.583,0,0,0-.431-1.129,4,4,0,0,0-1.612-.838l-2.315-.726a4.865,4.865,0,0,1-2.554-1.645,3.863,3.863,0,0,1-.8-2.338,3.623,3.623,0,0,1,.431-1.79,4.141,4.141,0,0,1,1.149-1.322,5.039,5.039,0,0,1,1.66-.838A6.946,6.946,0,0,1,40.906,11a8.012,8.012,0,0,1,1.07.064c.367.048.7.113,1.038.177.319.081.623.161.91.258a3.494,3.494,0,0,1,.671.29,1.383,1.383,0,0,1,.479.4.873.873,0,0,1,.144.532v.758c0,.339-.128.516-.367.516a1.648,1.648,0,0,1-.607-.193,7.246,7.246,0,0,0-3.065-.629,4.09,4.09,0,0,0-2.123.451,1.56,1.56,0,0,0-.75,1.435,1.533,1.533,0,0,0,.479,1.145,4.753,4.753,0,0,0,1.756.887l2.267.726a4.848,4.848,0,0,1,2.474,1.548,3.678,3.678,0,0,1,.734,2.257A4.183,4.183,0,0,1,45.6,23.5a4.335,4.335,0,0,1-1.165,1.419,5.14,5.14,0,0,1-1.772.9A7.541,7.541,0,0,1,40.379,26.156Z" fill="#252f3e"/><path d="M43.4,33.992c-5.252,3.918-12.883,6-19.445,6A34.982,34.982,0,0,1,.212,30.848c-.5-.451-.048-1.064.543-.709A47.515,47.515,0,0,0,24.51,36.508a46.981,46.981,0,0,0,18.119-3.741C43.508,32.364,44.258,33.347,43.4,33.992Zm2.187-2.515c-.671-.871-4.438-.419-6.146-.21-.511.064-.591-.387-.128-.726,3-2.128,7.934-1.516,8.509-.806.575.726-.16,5.708-2.969,8.094-.431.371-.846.177-.655-.306C44.833,35.927,46.254,32.331,45.583,31.477Z" fill="#f90"/></g></svg>