<svg xmlns="http://www.w3.org/2000/svg" width="194.573" height="40.743" viewBox="0 0 194.573 40.743"><g transform="translate(0 0)"><path d="M9.144,0q2.326,0,4,.108t2.922.3A10.736,10.736,0,0,1,18.18.92a11.238,11.238,0,0,1,1.623.757,8.788,8.788,0,0,1,2.272,1.678A10.418,10.418,0,0,1,23.916,5.87a15.5,15.5,0,0,1,1.216,3.084,12.532,12.532,0,0,1,.461,3.382,13.863,13.863,0,0,1-.542,4.058,12.179,12.179,0,0,1-2,4.058,11.385,11.385,0,0,1-3.7,3.165A11.3,11.3,0,0,1,13.8,24.889l-1.57.054L23,40.039H20.94L9.2,23.482h2.489q1.407,0,2.6-.082a12.283,12.283,0,0,0,2.244-.352,9.82,9.82,0,0,0,2.057-.786,10.859,10.859,0,0,0,1.975-1.329,12.019,12.019,0,0,0,2.651-4.1,13.013,13.013,0,0,0,.757-4.474,12.2,12.2,0,0,0-1.217-5.207,9.747,9.747,0,0,0-3.544-4.122,8.1,8.1,0,0,0-1.948-.923,13.333,13.333,0,0,0-2.245-.487,23.523,23.523,0,0,0-2.652-.191q-1.432-.027-3.219-.026H1.623V40.039H0V0Z" transform="translate(0 0)" fill="#464b49"/><path d="M25.266,25.864A13.054,13.054,0,0,0,29.98,36.117a13.53,13.53,0,0,0,4.389,2.434,14.406,14.406,0,0,0,4.5.784,13.847,13.847,0,0,0,7.259-1.948,12.658,12.658,0,0,0,4.986-5.626h1.679A14.531,14.531,0,0,1,50.3,35.736a14.716,14.716,0,0,1-3.332,2.815,14.331,14.331,0,0,1-3.9,1.65,16.91,16.91,0,0,1-4.253.542A15.8,15.8,0,0,1,32.745,39.6a14.2,14.2,0,0,1-4.767-3.165,14.7,14.7,0,0,1-3.143-4.788A15.446,15.446,0,0,1,23.7,25.7v.055a15.276,15.276,0,0,1,1.163-6.006,14.825,14.825,0,0,1,3.192-4.788A14.412,14.412,0,0,1,32.869,11.8a15.684,15.684,0,0,1,5.978-1.136,15.483,15.483,0,0,1,5.519,1A14.932,14.932,0,0,1,49.1,14.528a14.21,14.21,0,0,1,3.355,4.544,15.6,15.6,0,0,1,1.434,5.979l-.054.813Zm27.108-1.408a11.59,11.59,0,0,0-1.3-4.9,14.257,14.257,0,0,0-3.064-4A13.844,13.844,0,0,0,43.753,12.9a11.751,11.751,0,0,0-4.879-.839,13.92,13.92,0,0,0-5.042.92A13.626,13.626,0,0,0,29.6,15.556a13.053,13.053,0,0,0-2.981,3.922,12.67,12.67,0,0,0-1.3,4.978Z" transform="translate(0 0)" fill="#464b49"/><path d="M73.107,25.864a13.054,13.054,0,0,0,4.714,10.253,13.519,13.519,0,0,0,4.389,2.434,14.406,14.406,0,0,0,4.5.784,13.847,13.847,0,0,0,7.259-1.948,12.658,12.658,0,0,0,4.986-5.626h1.679a14.555,14.555,0,0,1-2.492,3.975,14.716,14.716,0,0,1-3.332,2.815,14.331,14.331,0,0,1-3.9,1.65,16.91,16.91,0,0,1-4.253.542A15.8,15.8,0,0,1,80.586,39.6a14.2,14.2,0,0,1-4.767-3.165,14.7,14.7,0,0,1-3.143-4.788A15.446,15.446,0,0,1,71.539,25.7v.055A15.276,15.276,0,0,1,72.7,19.749a14.825,14.825,0,0,1,3.192-4.788A14.412,14.412,0,0,1,80.71,11.8a15.684,15.684,0,0,1,5.978-1.136,15.479,15.479,0,0,1,5.519,1,14.932,14.932,0,0,1,4.734,2.868,14.21,14.21,0,0,1,3.355,4.544,15.6,15.6,0,0,1,1.434,5.979l-.054.813Zm27.108-1.408a11.59,11.59,0,0,0-1.3-4.9,14.257,14.257,0,0,0-3.064-4A13.844,13.844,0,0,0,91.594,12.9a11.754,11.754,0,0,0-4.879-.839,13.92,13.92,0,0,0-5.042.92,13.626,13.626,0,0,0-4.229,2.571,13.053,13.053,0,0,0-2.981,3.922,12.67,12.67,0,0,0-1.3,4.978Z" transform="translate(0 0)" fill="#464b49"/><path d="M103.568,11.362h1.568l11.2,26.89,11.037-26.89h1.731L117.311,40.038h-1.948Z" transform="translate(0 0)" fill="#464b49"/><path d="M131.594,25.7a15.494,15.494,0,0,1,1.136-5.952,14.358,14.358,0,0,1,7.954-7.953,16.429,16.429,0,0,1,12.011,0,14.35,14.35,0,0,1,7.954,7.953,15.475,15.475,0,0,1,1.136,5.952,15.406,15.406,0,0,1-1.136,5.979A14.414,14.414,0,0,1,152.7,39.6a16.415,16.415,0,0,1-12.011,0,14.422,14.422,0,0,1-7.954-7.926,15.425,15.425,0,0,1-1.136-5.979m1.515,0a14.028,14.028,0,0,0,1.028,5.412,13.127,13.127,0,0,0,7.17,7.2,14.621,14.621,0,0,0,10.766,0,13.127,13.127,0,0,0,7.17-7.2,14.046,14.046,0,0,0,1.028-5.412,14.036,14.036,0,0,0-1.028-5.41,13.116,13.116,0,0,0-7.17-7.2,14.608,14.608,0,0,0-10.766,0,13.116,13.116,0,0,0-7.17,7.2,14.018,14.018,0,0,0-1.028,5.41" transform="translate(0 0)" fill="#464b49"/><path d="M169.793,16.881h.109a8.025,8.025,0,0,1,1.893-2.759,11.462,11.462,0,0,1,2.814-1.975,14.007,14.007,0,0,1,3.327-1.163,14.458,14.458,0,0,1,3.49-.325,13.631,13.631,0,0,1,8.982,2.867q4.165,3.519,4.165,11.364V40.039h-1.515V24.89a17.421,17.421,0,0,0-.946-6.2,10,10,0,0,0-2.57-3.923,9.41,9.41,0,0,0-3.787-2.11,15.87,15.87,0,0,0-4.329-.6q-5.41.109-8.522,3.084t-3.111,8.386v16.5h-1.515V11.363h1.515Z" transform="translate(0 0)" fill="#464b49"/><path d="M2.535,24V2.317H9.144q1.776,0,3.2.027a23.054,23.054,0,0,1,2.548.182,12.529,12.529,0,0,1,2.091.454,7.178,7.178,0,0,1,1.727.818,8.886,8.886,0,0,1,3.213,3.743,11.348,11.348,0,0,1,1.132,4.821,12.188,12.188,0,0,1-.7,4.163A11.2,11.2,0,0,1,19.9,20.306a10.221,10.221,0,0,1-1.73,1.144,9.07,9.07,0,0,1-1.865.713,11.513,11.513,0,0,1-2.081.326c-.77.053-1.623.079-2.535.079H7.433L8.448,24Z" transform="translate(0 0)" fill="#59605f"/><path d="M64.9,13.553a2.191,2.191,0,1,1-2.191-2.191A2.191,2.191,0,0,1,64.9,13.553" transform="translate(0 0)" fill="#464b49"/><path d="M64.9,37.847a2.191,2.191,0,1,1-2.191-2.191A2.191,2.191,0,0,1,64.9,37.847" transform="translate(0 0)" fill="#464b49"/></g></svg>