<svg xmlns="http://www.w3.org/2000/svg" xmlns:xlink="http://www.w3.org/1999/xlink" width="194.573" height="40.742" viewBox="0 0 194.573 40.742"><defs><clipPath id="a"><rect width="194.573" height="40.742" transform="translate(0 0)" fill="none"/></clipPath></defs><g transform="translate(0 0)"><g clip-path="url(#a)"><path d="M9.144,0q2.326,0,4,.108t2.922.3A10.736,10.736,0,0,1,18.18.92a11.238,11.238,0,0,1,1.623.757,8.788,8.788,0,0,1,2.272,1.678A10.418,10.418,0,0,1,23.916,5.87a15.5,15.5,0,0,1,1.216,3.084,12.532,12.532,0,0,1,.461,3.382,13.863,13.863,0,0,1-.542,4.058,12.179,12.179,0,0,1-2,4.058,11.4,11.4,0,0,1-3.7,3.165A11.3,11.3,0,0,1,13.8,24.889l-1.57.054L23,40.039H20.94L9.2,23.482h2.489q1.407,0,2.6-.082a12.283,12.283,0,0,0,2.244-.352,9.82,9.82,0,0,0,2.057-.786,10.859,10.859,0,0,0,1.975-1.329,12.019,12.019,0,0,0,2.651-4.1,13.013,13.013,0,0,0,.757-4.474,12.2,12.2,0,0,0-1.217-5.207,9.747,9.747,0,0,0-3.544-4.122,8.1,8.1,0,0,0-1.948-.923,13.333,13.333,0,0,0-2.245-.487,23.318,23.318,0,0,0-2.652-.19q-1.432-.029-3.219-.027H1.623V40.039H0V0Z" fill="#fff"/><path d="M25.266,25.864A13.05,13.05,0,0,0,29.98,36.116a13.514,13.514,0,0,0,4.389,2.435,14.406,14.406,0,0,0,4.5.784,13.847,13.847,0,0,0,7.259-1.948,12.658,12.658,0,0,0,4.986-5.626h1.679A14.531,14.531,0,0,1,50.3,35.736a14.742,14.742,0,0,1-3.332,2.815,14.331,14.331,0,0,1-3.9,1.65,16.956,16.956,0,0,1-4.253.542A15.8,15.8,0,0,1,32.745,39.6a14.2,14.2,0,0,1-4.767-3.165,14.7,14.7,0,0,1-3.143-4.788A15.446,15.446,0,0,1,23.7,25.7v.055a15.281,15.281,0,0,1,1.163-6.007,14.847,14.847,0,0,1,3.192-4.787A14.412,14.412,0,0,1,32.869,11.8a15.684,15.684,0,0,1,5.978-1.136,15.479,15.479,0,0,1,5.519,1A14.932,14.932,0,0,1,49.1,14.528a14.21,14.21,0,0,1,3.355,4.544,15.6,15.6,0,0,1,1.434,5.979l-.054.813Zm27.108-1.408a11.59,11.59,0,0,0-1.3-4.9,14.257,14.257,0,0,0-3.064-4A13.844,13.844,0,0,0,43.753,12.9a11.735,11.735,0,0,0-4.879-.839,13.92,13.92,0,0,0-5.042.92A13.626,13.626,0,0,0,29.6,15.556a13.053,13.053,0,0,0-2.981,3.922,12.67,12.67,0,0,0-1.3,4.978Z" fill="#fff"/><path d="M73.107,25.864a13.047,13.047,0,0,0,4.715,10.252,13.5,13.5,0,0,0,4.388,2.435,14.411,14.411,0,0,0,4.5.784,13.847,13.847,0,0,0,7.259-1.948,12.658,12.658,0,0,0,4.986-5.626h1.679a14.555,14.555,0,0,1-2.492,3.975,14.742,14.742,0,0,1-3.332,2.815,14.331,14.331,0,0,1-3.9,1.65,16.956,16.956,0,0,1-4.253.542A15.8,15.8,0,0,1,80.586,39.6a14.2,14.2,0,0,1-4.767-3.165,14.7,14.7,0,0,1-3.143-4.788A15.446,15.446,0,0,1,71.539,25.7v.055A15.281,15.281,0,0,1,72.7,19.748a14.831,14.831,0,0,1,3.192-4.787A14.412,14.412,0,0,1,80.71,11.8a15.684,15.684,0,0,1,5.978-1.136,15.479,15.479,0,0,1,5.519,1,14.932,14.932,0,0,1,4.734,2.868,14.21,14.21,0,0,1,3.355,4.544,15.6,15.6,0,0,1,1.434,5.979l-.054.813Zm27.108-1.408a11.59,11.59,0,0,0-1.3-4.9,14.257,14.257,0,0,0-3.064-4A13.844,13.844,0,0,0,91.594,12.9a11.735,11.735,0,0,0-4.879-.839,13.92,13.92,0,0,0-5.042.92,13.626,13.626,0,0,0-4.229,2.571,13.053,13.053,0,0,0-2.981,3.922,12.67,12.67,0,0,0-1.3,4.978Z" fill="#fff"/><path d="M103.568,11.362h1.569l11.2,26.89,11.038-26.89h1.731L117.311,40.039h-1.948Z" fill="#fff"/><path d="M131.594,25.7a15.494,15.494,0,0,1,1.136-5.952,14.358,14.358,0,0,1,7.954-7.953,16.429,16.429,0,0,1,12.011,0,14.35,14.35,0,0,1,7.954,7.953,15.475,15.475,0,0,1,1.136,5.952,15.406,15.406,0,0,1-1.136,5.979A14.414,14.414,0,0,1,152.7,39.6a16.429,16.429,0,0,1-12.011,0,14.422,14.422,0,0,1-7.954-7.926,15.425,15.425,0,0,1-1.136-5.979m1.515,0a14.028,14.028,0,0,0,1.028,5.412,13.129,13.129,0,0,0,7.169,7.2,14.624,14.624,0,0,0,10.767,0,13.127,13.127,0,0,0,7.17-7.2,14.046,14.046,0,0,0,1.028-5.412,14.045,14.045,0,0,0-1.028-5.411,13.118,13.118,0,0,0-7.17-7.2,14.61,14.61,0,0,0-10.767,0,13.121,13.121,0,0,0-7.169,7.2,14.026,14.026,0,0,0-1.028,5.411" fill="#fff"/><path d="M169.793,16.881h.108a8.042,8.042,0,0,1,1.894-2.759,11.411,11.411,0,0,1,2.813-1.975,14.03,14.03,0,0,1,3.328-1.163,14.408,14.408,0,0,1,3.49-.325,13.621,13.621,0,0,1,8.981,2.867q4.167,3.519,4.166,11.364V40.039h-1.515V24.89a17.443,17.443,0,0,0-.946-6.2,10,10,0,0,0-2.57-3.923,9.413,9.413,0,0,0-3.788-2.11,15.858,15.858,0,0,0-4.328-.6q-5.412.111-8.522,3.085t-3.111,8.386v16.5h-1.515V11.363h1.515Z" fill="#fff"/><path d="M2.535,24V2.317H9.144q1.776,0,3.2.027a22.813,22.813,0,0,1,2.548.182,12.529,12.529,0,0,1,2.091.454,7.178,7.178,0,0,1,1.727.818,8.886,8.886,0,0,1,3.213,3.743,11.348,11.348,0,0,1,1.132,4.821,12.188,12.188,0,0,1-.7,4.163A11.2,11.2,0,0,1,19.9,20.306a10.161,10.161,0,0,1-1.73,1.144,9.013,9.013,0,0,1-1.865.713,11.513,11.513,0,0,1-2.081.326c-.77.053-1.623.079-2.535.079H7.433L8.448,24Z" fill="#f0f1f2"/><path d="M64.9,13.554a2.191,2.191,0,1,1-2.191-2.191A2.191,2.191,0,0,1,64.9,13.554" fill="#fff"/><path d="M64.9,37.847a2.191,2.191,0,1,1-2.191-2.191A2.191,2.191,0,0,1,64.9,37.847" fill="#fff"/></g></g></svg>