<svg xmlns="http://www.w3.org/2000/svg" width="34" height="34" viewBox="0 0 34 34"><path d="M.895,1.79a.861.861,0,0,1-.631-.263A.861.861,0,0,1,0,.895.861.861,0,0,1,.264.264.861.861,0,0,1,.895,0a.861.861,0,0,1,.631.263A.861.861,0,0,1,1.79.895a.843.843,0,0,1-.124.447.928.928,0,0,1-.323.328.853.853,0,0,1-.447.119Zm3.818,0a.861.861,0,0,1-.631-.263A.861.861,0,0,1,3.818.895.861.861,0,0,1,4.082.264a.888.888,0,0,1,1.263,0,.861.861,0,0,1,.263.631.843.843,0,0,1-.124.447.928.928,0,0,1-.323.328.853.853,0,0,1-.447.119Zm3.818,0A.861.861,0,0,1,7.9,1.526.861.861,0,0,1,7.636.895.861.861,0,0,1,7.9.264a.888.888,0,0,1,1.263,0,.861.861,0,0,1,.264.631.843.843,0,0,1-.124.447.928.928,0,0,1-.323.328.853.853,0,0,1-.447.119Z" transform="translate(12.113 16.035)"/><g fill="none" stroke="#111" stroke-width="1"><circle cx="17" cy="17" r="17" stroke="none"/><circle cx="17" cy="17" r="16.5" fill="none"/></g></svg>