<svg xmlns="http://www.w3.org/2000/svg" width="1280.268" height="128.257" viewBox="0 0 1280.268 128.257"><path d="M1837.585,653V568.282H1868.6v17.933q2.444-3.732,4.783-6.641v24.854q-.317.635-.609,1.3-3.158,7.331-3.158,18.724V653Zm-87.618,0V524.743h34.515V653ZM1577.1,653V616.218q0-9.7-2.595-14.889-4.737-9.474-18.047-9.474-16.354,0-22.445,13.874-3.159,7.331-3.159,18.724V653h-32.033V568.282h31.018v17.933q6.2-9.474,11.73-13.648,9.927-7.444,25.153-7.445,19.062,0,31.187,9.983t12.126,33.1V653Zm-162.712,0q4.373-9.176,4.373-23.247,0-18.5-7.557-28.481t-21.656-9.982q-14.1,0-21.713,9.982t-7.614,28.481q0,14.071,4.406,23.247h-34.5a79.271,79.271,0,0,1-3.294-23.247q0-26.619,15.566-46.132t47.26-19.513q31.7,0,47.26,19.513t15.566,46.132A79.275,79.275,0,0,1,1449.193,653Zm-180.282,0,24.512-84.945h34.514L1262.506,653Zm-32.883,0-30.471-84.945h36.094L1230.829,653Zm-177.311,0a95.719,95.719,0,0,1-2.363-22.232q0-31.921,16.186-48.952t42.016-17.032a64.433,64.433,0,0,1,27.634,5.752,48.408,48.408,0,0,1,20.3,18.16,61.964,61.964,0,0,1,9.362,25.378q1.241,8.459,1.015,24.363h-84.144A43.724,43.724,0,0,0,1056.669,653Zm38.524-54.716q-6.146,6.993-7.726,18.95h49.967q-.788-12.745-7.726-19.344a23.992,23.992,0,0,0-17.2-6.6Q1068.585,591.291,1062.437,598.284ZM772.317,653a95.719,95.719,0,0,1-2.363-22.232q0-31.921,16.186-48.952t42.016-17.032a64.433,64.433,0,0,1,27.634,5.752,48.408,48.408,0,0,1,20.3,18.16,61.963,61.963,0,0,1,9.362,25.378q1.241,8.459,1.015,24.363H802.326A43.727,43.727,0,0,0,805.073,653Zm38.524-54.716q-6.146,6.993-7.727,18.95h49.967q-.788-12.745-7.726-19.344a23.992,23.992,0,0,0-17.2-6.6Q816.989,591.291,810.841,598.284ZM689.678,653l-.01-.689q-.225-15.9-5.809-21.2t-20.923-5.3H627.068V653H593.117V524.743h81.55q17.483.339,26.9,4.286a42.031,42.031,0,0,1,15.96,11.618,51.461,51.461,0,0,1,8.573,13.986,45.6,45.6,0,0,1,3.158,17.483,49.81,49.81,0,0,1-5.978,23.291q-5.978,11.449-19.739,16.187,11.5,4.624,16.3,13.14t4.794,26V653Zm-62.61-54.716h39.365q11.73,0,17.6-2.707,10.376-4.737,10.377-18.724,0-15.113-10.039-20.3-5.64-2.934-16.919-2.933h-40.38Zm315.324,8.234V572.906h34.177v33.612Z" transform="translate(-593.117 -524.743)"/></svg>