<svg xmlns="http://www.w3.org/2000/svg" width="992.368" height="153.516" viewBox="0 0 992.368 153.516"><path d="M63.125,3.2q-24.688,0-37.734-13.437-17.5-16.484-17.5-47.5,0-31.641,17.5-47.5,13.047-13.438,37.734-13.437t37.734,13.438q17.422,15.859,17.422,47.5,0,31.016-17.422,47.5Q87.813,3.2,63.125,3.2ZM85.859-27.734q8.359-10.547,8.359-30,0-19.375-8.4-29.961t-22.7-10.586q-14.3,0-22.812,10.547t-8.516,30q0,19.453,8.516,30T63.125-17.187Q77.422-17.187,85.859-27.734Zm103.594,15.7q-.312.391-1.562,2.344a15.684,15.684,0,0,1-2.969,3.438A31.005,31.005,0,0,1,174.8.156a34.48,34.48,0,0,1-11.445,1.719q-18.906,0-25.469-13.594-3.672-7.5-3.672-22.109V-85.156h22.813v51.328q0,7.266,1.719,10.938,3.047,6.484,11.953,6.484,11.406,0,15.625-9.219,2.187-5,2.188-13.2V-85.156h22.578V0H189.453Zm85.938-52.578q-13.438,0-18.047,8.75-2.578,4.922-2.578,15.156V0H232.344V-85.156h21.25v14.844q5.156-8.516,8.984-11.641,6.25-5.234,16.25-5.234.625,0,1.055.039t1.914.117v22.813q-2.109-.234-3.75-.312T275.391-64.609ZM363.125,0H340.7V-115.156h35l20.938,90.547,20.781-90.547h34.609V0H429.609V-77.891q0-3.359.078-9.414t.078-9.336L407.969,0H384.609L362.969-96.641q0,3.281.078,9.336t.078,9.414ZM545.469-25q-.859,7.578-7.891,15.391Q526.641,2.813,506.953,2.813A43.185,43.185,0,0,1,478.281-7.656q-12.422-10.469-12.422-34.062,0-22.109,11.211-33.906t29.1-11.8a44.629,44.629,0,0,1,19.141,3.984,33.53,33.53,0,0,1,14.063,12.578,42.915,42.915,0,0,1,6.484,17.578,113.517,113.517,0,0,1,.7,16.875H488.281q.469,12.813,8.047,17.969a18.953,18.953,0,0,0,11.094,3.2q6.875,0,11.172-3.906A18.553,18.553,0,0,0,522.734-25ZM523.438-51.094q-.547-8.828-5.352-13.4a16.618,16.618,0,0,0-11.914-4.57q-7.734,0-11.992,4.844t-5.352,13.125Zm96.8-30.156q10,6.406,11.484,22.031H609.453a13.171,13.171,0,0,0-2.422-6.8q-3.672-4.531-12.5-4.531-7.266,0-10.352,2.266t-3.086,5.313a5.814,5.814,0,0,0,3.281,5.547q3.281,1.8,23.2,6.172Q620.859-48.125,627.5-41.8a21.462,21.462,0,0,1,6.563,16.016,25.878,25.878,0,0,1-9.414,20.664q-9.414,8.008-29.1,8.008-20.078,0-29.648-8.477a27.577,27.577,0,0,1-9.57-21.6h22.578q.7,5.938,3.047,8.438,4.141,4.453,15.313,4.453,6.563,0,10.43-1.953a6.258,6.258,0,0,0,3.867-5.859,6.318,6.318,0,0,0-3.125-5.7q-3.125-1.953-23.2-6.719-14.453-3.594-20.391-8.984-5.937-5.313-5.937-15.312,0-11.8,9.258-20.273t26.055-8.477Q610.156-87.578,620.234-81.25Zm88.984,0q10,6.406,11.484,22.031H698.438a13.171,13.171,0,0,0-2.422-6.8q-3.672-4.531-12.5-4.531-7.266,0-10.352,2.266t-3.086,5.313a5.814,5.814,0,0,0,3.281,5.547q3.281,1.8,23.2,6.172,13.281,3.125,19.922,9.453a21.462,21.462,0,0,1,6.563,16.016,25.878,25.878,0,0,1-9.414,20.664q-9.414,8.008-29.1,8.008-20.078,0-29.648-8.477a27.577,27.577,0,0,1-9.57-21.6h22.578q.7,5.938,3.047,8.438Q675.078-14.3,686.25-14.3q6.563,0,10.43-1.953a6.258,6.258,0,0,0,3.867-5.859,6.318,6.318,0,0,0-3.125-5.7q-3.125-1.953-23.2-6.719-14.453-3.594-20.391-8.984-5.937-5.313-5.937-15.312,0-11.8,9.258-20.273T683.2-87.578Q699.141-87.578,709.219-81.25Zm33.516,5.313q8.828-11.25,30.313-11.25a53.855,53.855,0,0,1,24.844,5.547Q808.75-76.094,808.75-60.7v39.063q0,4.063.156,9.844.234,4.375,1.328,5.938a7.983,7.983,0,0,0,3.281,2.578V0H789.3a24.8,24.8,0,0,1-1.406-4.844Q787.5-7.109,787.266-10a45.746,45.746,0,0,1-10.625,8.516,31.959,31.959,0,0,1-16.25,4.141q-11.562,0-19.1-6.6T733.75-22.656q0-15.7,12.109-22.734,6.641-3.828,19.531-5.469l7.578-.937A34.754,34.754,0,0,0,781.8-53.75q4.766-2.031,4.766-6.328,0-5.234-3.633-7.227T772.266-69.3q-7.891,0-11.172,3.906a16.236,16.236,0,0,0-3.125,7.813H736.484Q737.188-68.75,742.734-75.937ZM759.3-16.094a11.634,11.634,0,0,0,7.656,2.578A22.677,22.677,0,0,0,780.2-17.734q6.055-4.219,6.289-15.391v-8.281a24.2,24.2,0,0,1-4.258,2.148,35.608,35.608,0,0,1-5.9,1.523l-5,.938q-7.031,1.25-10.078,3.047-5.156,3.047-5.156,9.453Q756.094-18.594,759.3-16.094Zm93.281,31.016q3.594,3.047,12.109,3.047,12.031,0,16.094-8.047,2.656-5.156,2.656-17.344v-5.469a27.152,27.152,0,0,1-6.875,8.2Q869.922.391,859.3.391q-16.406,0-26.211-11.523t-9.8-31.211q0-18.984,9.453-31.914t26.8-12.93A29.332,29.332,0,0,1,870.7-85.234q8.125,3.359,13.125,12.344V-85.156h21.641V-4.375q0,16.484-5.547,24.844-9.531,14.375-36.562,14.375-16.328,0-26.641-6.406T825.313,9.3h24.219A10.027,10.027,0,0,0,852.578,14.922Zm-3.75-43.984q4.531,10.781,16.25,10.781a17.2,17.2,0,0,0,13.2-5.9q5.391-5.9,5.391-18.789,0-12.109-5.117-18.437a16.726,16.726,0,0,0-13.711-6.328q-11.719,0-16.172,11.016a39.065,39.065,0,0,0-2.344,14.453A32.98,32.98,0,0,0,848.828-29.062ZM999.141-25q-.859,7.578-7.891,15.391Q980.312,2.813,960.625,2.813A43.185,43.185,0,0,1,931.953-7.656q-12.422-10.469-12.422-34.062,0-22.109,11.211-33.906t29.1-11.8a44.629,44.629,0,0,1,19.141,3.984,33.53,33.53,0,0,1,14.063,12.578,42.915,42.915,0,0,1,6.484,17.578,113.517,113.517,0,0,1,.7,16.875H941.953q.469,12.813,8.047,17.969a18.953,18.953,0,0,0,11.094,3.2q6.875,0,11.172-3.906A18.553,18.553,0,0,0,976.406-25ZM977.109-51.094q-.547-8.828-5.352-13.4a16.618,16.618,0,0,0-11.914-4.57q-7.734,0-11.992,4.844T942.5-51.094Z" transform="translate(-7.891 118.672)"/></svg>