<svg xmlns="http://www.w3.org/2000/svg" width="50" height="50" viewBox="0 0 50 50"><path d="M.895,1.79a.861.861,0,0,1-.631-.263A.861.861,0,0,1,0,.895.861.861,0,0,1,.264.264.861.861,0,0,1,.895,0a.861.861,0,0,1,.631.263A.861.861,0,0,1,1.79.895a.843.843,0,0,1-.124.447.928.928,0,0,1-.323.328.853.853,0,0,1-.447.119Zm3.818,0a.861.861,0,0,1-.631-.263A.861.861,0,0,1,3.818.895.861.861,0,0,1,4.082.264a.888.888,0,0,1,1.263,0,.861.861,0,0,1,.263.631.843.843,0,0,1-.124.447.928.928,0,0,1-.323.328.853.853,0,0,1-.447.119Zm3.818,0A.861.861,0,0,1,7.9,1.526.861.861,0,0,1,7.636.895.861.861,0,0,1,7.9.264a.888.888,0,0,1,1.263,0,.861.861,0,0,1,.264.631.843.843,0,0,1-.124.447.928.928,0,0,1-.323.328.853.853,0,0,1-.447.119Z" transform="translate(20 24)" fill="#fff"/><g fill="none" stroke="#fff" stroke-width="1"><circle cx="25" cy="25" r="25" stroke="none"/><circle cx="25" cy="25" r="24.5" fill="none"/></g></svg>